<svg width="18" height="18" viewBox="0 0 18 18" fill="none" xmlns="http://www.w3.org/2000/svg">
<g clip-path="url(#clip0_64_90)">
<path d="M16.875 1.68516L12.3711 1.68518V0.564117C12.3711 0.253336 12.1193 0.00161743 11.8086 0.00161743C11.4978 0.00161743 11.2461 0.253336 11.2461 0.564117V1.6849H6.74606V0.564117C6.74606 0.253336 6.49434 0.00161743 6.18356 0.00161743C5.87278 0.00161743 5.62106 0.253336 5.62106 0.564117V1.6849H1.125C0.503719 1.6849 0 2.18862 0 2.8099V16.8724C0 17.4937 0.503719 17.9974 1.125 17.9974H16.875C17.4963 17.9974 18 17.4937 18 16.8724V2.8099C18 2.18888 17.4963 1.68516 16.875 1.68516ZM16.875 16.8724H1.125V2.8099H5.62106V3.37662C5.62106 3.68738 5.87278 3.93912 6.18356 3.93912C6.49434 3.93912 6.74606 3.68738 6.74606 3.37662V2.81018H11.2461V3.3769C11.2461 3.68768 11.4978 3.9394 11.8086 3.9394C12.1193 3.9394 12.3711 3.68768 12.3711 3.3769V2.81018H16.875V16.8724ZM12.9375 8.99766H14.0625C14.373 8.99766 14.625 8.74566 14.625 8.43516V7.31016C14.625 6.99966 14.373 6.74766 14.0625 6.74766H12.9375C12.627 6.74766 12.375 6.99966 12.375 7.31016V8.43516C12.375 8.74566 12.627 8.99766 12.9375 8.99766ZM12.9375 13.4974H14.0625C14.373 13.4974 14.625 13.2457 14.625 12.9349V11.8099C14.625 11.4994 14.373 11.2474 14.0625 11.2474H12.9375C12.627 11.2474 12.375 11.4994 12.375 11.8099V12.9349C12.375 13.2459 12.627 13.4974 12.9375 13.4974ZM9.5625 11.2474H8.4375C8.127 11.2474 7.875 11.4994 7.875 11.8099V12.9349C7.875 13.2457 8.127 13.4974 8.4375 13.4974H9.5625C9.873 13.4974 10.125 13.2457 10.125 12.9349V11.8099C10.125 11.4997 9.873 11.2474 9.5625 11.2474ZM9.5625 6.74766H8.4375C8.127 6.74766 7.875 6.99966 7.875 7.31016V8.43516C7.875 8.74566 8.127 8.99766 8.4375 8.99766H9.5625C9.873 8.99766 10.125 8.74566 10.125 8.43516V7.31016C10.125 6.99938 9.873 6.74766 9.5625 6.74766ZM5.0625 6.74766H3.9375C3.627 6.74766 3.375 6.99966 3.375 7.31016V8.43516C3.375 8.74566 3.627 8.99766 3.9375 8.99766H5.0625C5.373 8.99766 5.625 8.74566 5.625 8.43516V7.31016C5.625 6.99938 5.373 6.74766 5.0625 6.74766ZM5.0625 11.2474H3.9375C3.627 11.2474 3.375 11.4994 3.375 11.8099V12.9349C3.375 13.2457 3.627 13.4974 3.9375 13.4974H5.0625C5.373 13.4974 5.625 13.2457 5.625 12.9349V11.8099C5.625 11.4997 5.373 11.2474 5.0625 11.2474Z" fill="#FF5733"/>
</g>
<defs>
<clipPath id="clip0_64_90">
<rect width="18" height="18" fill="white"/>
</clipPath>
</defs>
</svg>
