<svg width="46" height="46" viewBox="0 0 46 46" fill="none" xmlns="http://www.w3.org/2000/svg">
<path d="M34.4999 30.82C33.0433 30.82 31.7399 31.395 30.7433 32.2958L17.0774 24.3416C17.1733 23.9008 17.2499 23.46 17.2499 23C17.2499 22.54 17.1733 22.0991 17.0774 21.6583L30.5899 13.7808C31.6249 14.7391 32.9858 15.3333 34.4999 15.3333C37.6816 15.3333 40.2499 12.765 40.2499 9.58331C40.2499 6.40165 37.6816 3.83331 34.4999 3.83331C31.3183 3.83331 28.7499 6.40165 28.7499 9.58331C28.7499 10.0433 28.8266 10.4841 28.9224 10.925L15.4099 18.8025C14.3749 17.8441 13.0141 17.25 11.4999 17.25C8.31827 17.25 5.74994 19.8183 5.74994 23C5.74994 26.1816 8.31827 28.75 11.4999 28.75C13.0141 28.75 14.3749 28.1558 15.4099 27.1975L29.0566 35.1708C28.9608 35.5733 28.9033 35.995 28.9033 36.4166C28.9033 39.5025 31.4141 42.0133 34.4999 42.0133C37.5858 42.0133 40.0966 39.5025 40.0966 36.4166C40.0966 33.3308 37.5858 30.82 34.4999 30.82Z" fill="white"/>
</svg>
