<svg width="20" height="20" viewBox="0 0 20 20" fill="none" xmlns="http://www.w3.org/2000/svg">
<path d="M9.99959 1.6666C5.41626 1.6666 1.66626 5.4166 1.66626 9.99993C1.66626 14.5833 5.41626 18.3333 9.99959 18.3333C14.5829 18.3333 18.3329 14.5833 18.3329 9.99993C18.3329 5.4166 14.5829 1.6666 9.99959 1.6666ZM9.99959 16.6666C6.32459 16.6666 3.33293 13.6749 3.33293 9.99993C3.33293 6.32493 6.32459 3.33326 9.99959 3.33326C13.6746 3.33326 16.6663 6.32493 16.6663 9.99993C16.6663 13.6749 13.6746 16.6666 9.99959 16.6666ZM10.4163 5.83326H9.16626V10.8333L13.4996 13.4999L14.1663 12.4166L10.4163 10.1666V5.83326Z" fill="#FF5733"/>
</svg>
