<svg width="177" height="43" viewBox="0 0 177 43" fill="none" xmlns="http://www.w3.org/2000/svg">
<path d="M37.517 36V18.5455H49.0739V21.5881H41.2074V25.7472H48.3068V28.7898H41.2074V36H37.517ZM51.4879 36V22.9091H55.1186V36H51.4879ZM53.3118 21.2216C52.772 21.2216 52.3089 21.0426 51.9226 20.6847C51.5419 20.321 51.3516 19.8864 51.3516 19.3807C51.3516 18.8807 51.5419 18.4517 51.9226 18.0938C52.3089 17.7301 52.772 17.5483 53.3118 17.5483C53.8516 17.5483 54.3118 17.7301 54.6925 18.0938C55.0788 18.4517 55.272 18.8807 55.272 19.3807C55.272 19.8864 55.0788 20.321 54.6925 20.6847C54.3118 21.0426 53.8516 21.2216 53.3118 21.2216ZM61.6577 28.4318V36H58.027V22.9091H61.4872V25.2188H61.6406C61.9304 24.4574 62.4162 23.8551 63.098 23.4119C63.7798 22.9631 64.6065 22.7386 65.5781 22.7386C66.4872 22.7386 67.2798 22.9375 67.956 23.3352C68.6321 23.733 69.1577 24.3011 69.5327 25.0398C69.9077 25.7727 70.0952 26.6477 70.0952 27.6648V36H66.4645V28.3125C66.4702 27.5114 66.2656 26.8864 65.8509 26.4375C65.4361 25.983 64.8651 25.7557 64.1378 25.7557C63.6491 25.7557 63.2173 25.8608 62.8423 26.071C62.473 26.2812 62.1832 26.5881 61.973 26.9915C61.7685 27.3892 61.6634 27.8693 61.6577 28.4318ZM76.6896 36.2472C75.8544 36.2472 75.1101 36.1023 74.4567 35.8125C73.8033 35.517 73.2862 35.0824 72.9055 34.5085C72.5305 33.929 72.343 33.2074 72.343 32.3438C72.343 31.6165 72.4766 31.0057 72.7436 30.5114C73.0107 30.017 73.3743 29.6193 73.8345 29.3182C74.2947 29.017 74.8175 28.7898 75.4027 28.6364C75.9936 28.483 76.6129 28.375 77.2607 28.3125C78.022 28.233 78.6357 28.1591 79.1016 28.0909C79.5675 28.017 79.9055 27.9091 80.1158 27.767C80.326 27.625 80.4311 27.4148 80.4311 27.1364V27.0852C80.4311 26.5455 80.2607 26.1278 79.9197 25.8324C79.5845 25.5369 79.1072 25.3892 78.4879 25.3892C77.8345 25.3892 77.3146 25.5341 76.9283 25.8239C76.5419 26.108 76.2862 26.4659 76.1612 26.8977L72.8033 26.625C72.9737 25.8295 73.3089 25.142 73.8089 24.5625C74.3089 23.9773 74.9538 23.5284 75.7436 23.2159C76.5391 22.8977 77.4595 22.7386 78.505 22.7386C79.2322 22.7386 79.9283 22.8239 80.593 22.9943C81.2635 23.1648 81.8572 23.429 82.3743 23.7869C82.897 24.1449 83.3089 24.6051 83.6101 25.1676C83.9112 25.7244 84.0618 26.392 84.0618 27.1705V36H80.6186V34.1847H80.5163C80.3061 34.5938 80.0249 34.9545 79.6726 35.267C79.3203 35.5739 78.897 35.8153 78.4027 35.9915C77.9084 36.1619 77.3374 36.2472 76.6896 36.2472ZM77.7294 33.7415C78.2635 33.7415 78.7351 33.6364 79.1442 33.4261C79.5533 33.2102 79.8743 32.9205 80.1072 32.5568C80.3402 32.1932 80.4567 31.7812 80.4567 31.321V29.9318C80.343 30.0057 80.1868 30.0739 79.9879 30.1364C79.7947 30.1932 79.576 30.2472 79.3317 30.2983C79.0874 30.3437 78.843 30.3864 78.5987 30.4261C78.3544 30.4602 78.1328 30.4915 77.9339 30.5199C77.5078 30.5824 77.1357 30.6818 76.8175 30.8182C76.4993 30.9545 76.2521 31.1392 76.076 31.3722C75.8999 31.5994 75.8118 31.8835 75.8118 32.2244C75.8118 32.7188 75.9908 33.0966 76.3487 33.358C76.7124 33.6136 77.1726 33.7415 77.7294 33.7415ZM90.5092 18.5455V36H86.8786V18.5455H90.5092ZM93.4858 18.5455H98.0369L102.844 30.2727H103.048L107.855 18.5455H112.406V36H108.827V24.6392H108.682L104.165 35.9148H101.727L97.2102 24.5966H97.0653V36H93.4858V18.5455ZM121.293 36.2557C119.969 36.2557 118.825 35.9744 117.859 35.4119C116.898 34.8437 116.157 34.054 115.634 33.0426C115.112 32.0256 114.85 30.8466 114.85 29.5057C114.85 28.1534 115.112 26.9716 115.634 25.9602C116.157 24.9432 116.898 24.1534 117.859 23.5909C118.825 23.0227 119.969 22.7386 121.293 22.7386C122.617 22.7386 123.759 23.0227 124.719 23.5909C125.685 24.1534 126.43 24.9432 126.952 25.9602C127.475 26.9716 127.737 28.1534 127.737 29.5057C127.737 30.8466 127.475 32.0256 126.952 33.0426C126.43 34.054 125.685 34.8437 124.719 35.4119C123.759 35.9744 122.617 36.2557 121.293 36.2557ZM121.31 33.4432C121.913 33.4432 122.415 33.2727 122.819 32.9318C123.222 32.5852 123.526 32.1136 123.731 31.517C123.941 30.9205 124.046 30.2415 124.046 29.4801C124.046 28.7188 123.941 28.0398 123.731 27.4432C123.526 26.8466 123.222 26.375 122.819 26.0284C122.415 25.6818 121.913 25.5085 121.31 25.5085C120.702 25.5085 120.191 25.6818 119.776 26.0284C119.367 26.375 119.058 26.8466 118.847 27.4432C118.643 28.0398 118.54 28.7188 118.54 29.4801C118.54 30.2415 118.643 30.9205 118.847 31.517C119.058 32.1136 119.367 32.5852 119.776 32.9318C120.191 33.2727 120.702 33.4432 121.31 33.4432ZM141.88 22.9091L137.303 36H133.212L128.636 22.9091H132.471L135.19 32.2756H135.326L138.036 22.9091H141.88ZM143.738 36V22.9091H147.369V36H143.738ZM145.562 21.2216C145.022 21.2216 144.559 21.0426 144.173 20.6847C143.792 20.321 143.602 19.8864 143.602 19.3807C143.602 18.8807 143.792 18.4517 144.173 18.0938C144.559 17.7301 145.022 17.5483 145.562 17.5483C146.102 17.5483 146.562 17.7301 146.942 18.0938C147.329 18.4517 147.522 18.8807 147.522 19.3807C147.522 19.8864 147.329 20.321 146.942 20.6847C146.562 21.0426 146.102 21.2216 145.562 21.2216ZM156.243 36.2557C154.896 36.2557 153.737 35.983 152.766 35.4375C151.8 34.8864 151.055 34.108 150.533 33.1023C150.01 32.0909 149.749 30.8949 149.749 29.5142C149.749 28.1676 150.01 26.9858 150.533 25.9688C151.055 24.9517 151.791 24.1591 152.74 23.5909C153.695 23.0227 154.814 22.7386 156.098 22.7386C156.962 22.7386 157.766 22.8778 158.51 23.1562C159.26 23.429 159.913 23.8409 160.47 24.392C161.033 24.9432 161.47 25.6364 161.783 26.4716C162.095 27.3011 162.251 28.2727 162.251 29.3864V30.3835H151.197V28.1335H158.834C158.834 27.6108 158.72 27.1477 158.493 26.7443C158.266 26.3409 157.95 26.0256 157.547 25.7983C157.149 25.5653 156.686 25.4489 156.158 25.4489C155.607 25.4489 155.118 25.5767 154.692 25.8324C154.271 26.0824 153.942 26.4205 153.703 26.8466C153.464 27.267 153.342 27.7358 153.337 28.2528V30.392C153.337 31.0398 153.456 31.5994 153.695 32.071C153.939 32.5426 154.283 32.9062 154.726 33.1619C155.169 33.4176 155.695 33.5455 156.303 33.5455C156.706 33.5455 157.075 33.4886 157.411 33.375C157.746 33.2614 158.033 33.0909 158.271 32.8636C158.51 32.6364 158.692 32.358 158.817 32.0284L162.175 32.25C162.004 33.0568 161.655 33.7614 161.126 34.3636C160.604 34.9602 159.928 35.4261 159.098 35.7614C158.274 36.0909 157.322 36.2557 156.243 36.2557ZM175.513 26.642L172.189 26.8466C172.132 26.5625 172.01 26.3068 171.822 26.0795C171.635 25.8466 171.388 25.6619 171.081 25.5256C170.78 25.3835 170.419 25.3125 169.999 25.3125C169.436 25.3125 168.962 25.4318 168.575 25.6705C168.189 25.9034 167.996 26.2159 167.996 26.608C167.996 26.9205 168.121 27.1847 168.371 27.4006C168.621 27.6165 169.05 27.7898 169.658 27.9205L172.027 28.3977C173.3 28.6591 174.249 29.0795 174.874 29.6591C175.499 30.2386 175.811 31 175.811 31.9432C175.811 32.8011 175.558 33.554 175.053 34.2017C174.553 34.8494 173.865 35.3551 172.99 35.7188C172.121 36.0767 171.118 36.2557 169.982 36.2557C168.249 36.2557 166.868 35.8949 165.839 35.1733C164.817 34.446 164.217 33.4574 164.041 32.2074L167.612 32.0199C167.72 32.5483 167.982 32.9517 168.396 33.2301C168.811 33.5028 169.342 33.6392 169.99 33.6392C170.626 33.6392 171.138 33.517 171.524 33.2727C171.916 33.0227 172.115 32.7017 172.121 32.3097C172.115 31.9801 171.976 31.7102 171.703 31.5C171.43 31.2841 171.01 31.1193 170.442 31.0057L168.175 30.554C166.896 30.2983 165.945 29.8551 165.32 29.2244C164.7 28.5937 164.391 27.7898 164.391 26.8125C164.391 25.9716 164.618 25.2472 165.072 24.6392C165.533 24.0312 166.178 23.5625 167.007 23.233C167.842 22.9034 168.82 22.7386 169.939 22.7386C171.592 22.7386 172.893 23.0881 173.842 23.7869C174.797 24.4858 175.354 25.4375 175.513 26.642Z" fill="#FF5733"/>
<g clip-path="url(#clip0_63_332)">
<path fill-rule="evenodd" clip-rule="evenodd" d="M3.02411 18.6344L8.92297 17.0555L8.94868 16.9398L10.9235 8.41551L14.4413 7.4718L14.4335 7.5078L12.4381 16.1144L19.8258 14.1344L19.8335 14.1035L21.883 5.47894L25.411 4.53523L25.4033 4.56094L23.3538 13.1881L33.3515 10.5087L31.9913 5.43266C31.9038 5.10643 31.753 4.80063 31.5474 4.5327C31.3417 4.26478 31.0854 4.03998 30.7928 3.87116C30.5003 3.70234 30.1774 3.59279 29.8426 3.54878C29.5077 3.50477 29.1675 3.52716 28.8413 3.61466L3.48183 10.4109C2.82356 10.5875 2.26232 11.0182 1.92143 11.6084C1.58054 12.1986 1.48788 12.8999 1.66383 13.5584L3.02411 18.6344ZM3.02668 18.6344H34.4238V35.9015C34.4238 36.5835 34.1529 37.2376 33.6707 37.7198C33.1884 38.202 32.5344 38.4729 31.8524 38.4729H5.60068C4.9187 38.4729 4.26465 38.202 3.78241 37.7198C3.30017 37.2376 3.02925 36.5835 3.02925 35.9015L3.02668 18.6344ZM8.61697 31.5018C8.61697 30.6147 9.33697 29.8947 10.2241 29.8947H13.7341C14.1604 29.8947 14.5691 30.064 14.8705 30.3654C15.1719 30.6668 15.3413 31.0756 15.3413 31.5018C15.3413 31.928 15.1719 32.3368 14.8705 32.6382C14.5691 32.9396 14.1604 33.1089 13.7341 33.1089H10.2241C9.79787 33.1089 9.38909 32.9396 9.08769 32.6382C8.78629 32.3368 8.61697 31.928 8.61697 31.5018Z" fill="#FF5733"/>
</g>
<defs>
<clipPath id="clip0_63_332">
<rect width="36" height="36" fill="white"/>
</clipPath>
</defs>
</svg>
