<svg width="36" height="36" viewBox="0 0 36 36" fill="none" xmlns="http://www.w3.org/2000/svg">
<g clip-path="url(#clip0_63_335)">
<path fill-rule="evenodd" clip-rule="evenodd" d="M3.02411 18.6344L8.92297 17.0555L8.94868 16.9398L10.9235 8.41551L14.4413 7.4718L14.4335 7.5078L12.4381 16.1144L19.8258 14.1344L19.8335 14.1035L21.883 5.47894L25.411 4.53523L25.4033 4.56094L23.3538 13.1881L33.3515 10.5087L31.9913 5.43266C31.9038 5.10643 31.753 4.80063 31.5474 4.5327C31.3417 4.26478 31.0854 4.03998 30.7928 3.87116C30.5003 3.70234 30.1774 3.59279 29.8426 3.54878C29.5077 3.50477 29.1675 3.52716 28.8413 3.61466L3.48183 10.4109C2.82356 10.5875 2.26232 11.0182 1.92143 11.6084C1.58054 12.1986 1.48788 12.8999 1.66383 13.5584L3.02411 18.6344ZM3.02668 18.6344H34.4238V35.9015C34.4238 36.5835 34.1529 37.2376 33.6707 37.7198C33.1884 38.202 32.5344 38.4729 31.8524 38.4729H5.60068C4.9187 38.4729 4.26465 38.202 3.78241 37.7198C3.30017 37.2376 3.02925 36.5835 3.02925 35.9015L3.02668 18.6344ZM8.61697 31.5018C8.61697 30.6147 9.33697 29.8947 10.2241 29.8947H13.7341C14.1604 29.8947 14.5691 30.064 14.8705 30.3654C15.1719 30.6668 15.3413 31.0756 15.3413 31.5018C15.3413 31.928 15.1719 32.3368 14.8705 32.6382C14.5691 32.9396 14.1604 33.1089 13.7341 33.1089H10.2241C9.79787 33.1089 9.38909 32.9396 9.08769 32.6382C8.78629 32.3368 8.61697 31.928 8.61697 31.5018Z" fill="#FF5733"/>
</g>
<defs>
<clipPath id="clip0_63_335">
<rect width="36" height="36" fill="white"/>
</clipPath>
</defs>
</svg>
