<svg width="24" height="24" viewBox="0 0 24 24" fill="none" xmlns="http://www.w3.org/2000/svg">
<path d="M2 12C2 8.7 2 7.05 3.464 6.025C4.93 5 7.286 5 12 5C16.714 5 19.071 5 20.535 6.025C21.999 7.05 22 8.7 22 12C22 15.3 22 16.95 20.535 17.975C19.072 19 16.714 19 12 19C7.286 19 4.929 19 3.464 17.975C1.999 16.95 2 15.3 2 12Z" stroke="#FF5733" stroke-width="1.5" stroke-linecap="round" stroke-linejoin="round"/>
<path d="M10.5 9.90802V14.092C10.5003 14.1459 10.5111 14.1991 10.532 14.2488C10.5528 14.2984 10.5832 14.3435 10.6215 14.3813C10.6598 14.4192 10.7051 14.4492 10.755 14.4696C10.8048 14.4899 10.8582 14.5003 10.912 14.5C10.9931 14.501 11.0727 14.4773 11.14 14.432L14.315 12.358C14.3715 12.3214 14.418 12.2714 14.4503 12.2123C14.4826 12.1533 14.4996 12.0871 14.4999 12.0198C14.5002 11.9525 14.4837 11.8862 14.452 11.8269C14.4202 11.7676 14.3742 11.7171 14.318 11.68L11.143 9.57002C11.0522 9.50926 10.9412 9.48673 10.8339 9.50732C10.7266 9.52791 10.6318 9.58996 10.57 9.68002C10.524 9.74713 10.4996 9.82667 10.5 9.90802Z" stroke="#FF5733" stroke-width="1.5" stroke-linecap="round" stroke-linejoin="round"/>
</svg>
